<?xml version="1.0" encoding="UTF-8" standalone="no"?>
<!-- Created with Inkscape (http://www.inkscape.org/) -->

<svg
   width="403.87231"
   height="507.75436"
   viewBox="0 0 403.87231 507.75436"
   version="1.1"
   id="svg1"
   xml:space="preserve"
   xmlns="http://www.w3.org/2000/svg"
   xmlns:svg="http://www.w3.org/2000/svg"><defs
     id="defs1" /><g
     id="layer1"
     transform="translate(-52.068162,-0.63675899)"><g
       style="fill:none;stroke:currentColor;stroke-width:2;stroke-linecap:round;stroke-linejoin:round"
       id="g1"
       transform="matrix(0,10.687687,-10.687687,0,299.94075,78.680805)"><path
         d="M 21,16 V 8 A 2,2 0 0 0 20,6.27 l -7,-4 a 2,2 0 0 0 -2,0 l -7,4 A 2,2 0 0 0 3,8 v 8 a 2,2 0 0 0 1,1.73 l 7,4 a 2,2 0 0 0 2,0 l 7,-4 A 2,2 0 0 0 21,16 Z"
         id="path1" /></g><g
       style="fill:none;stroke:currentColor;stroke-width:2;stroke-linecap:round;stroke-linejoin:round"
       id="g2"
       transform="matrix(0,10.687687,-10.687687,0,466.65649,-20.738615)"><path
         d="M 21,16 V 8 A 2,2 0 0 0 20,6.27 l -7,-4 a 2,2 0 0 0 -2,0 l -7,4 A 2,2 0 0 0 3,8 v 8 a 2,2 0 0 0 1,1.73 l 7,4 a 2,2 0 0 0 2,0 l 7,-4 A 2,2 0 0 0 21,16 Z"
         id="path1-5" /></g><path
       d="m 126.85358,497.70346 h 85.50149 a 21.375374,21.375374 0 0 0 18.4897,-10.68768 l 42.75075,-74.81382 a 21.375374,21.375374 0 0 0 0,-21.37537 l -42.75075,-74.8138 a 21.375374,21.375374 0 0 0 -18.4897,-10.68769 h -85.50149 a 21.375374,21.375374 0 0 0 -18.48969,10.68769 l -42.750747,74.8138 a 21.375374,21.375374 0 0 0 0,21.37537 l 42.750747,74.81382 a 21.375374,21.375374 0 0 0 18.48969,10.68768 z"
       id="path1-1"
       style="fill:none;stroke:currentColor;stroke-width:21.3753;stroke-linecap:round;stroke-linejoin:round" /><g
       style="fill:none;stroke:currentColor;stroke-width:2;stroke-linecap:round;stroke-linejoin:round"
       id="g3"
       transform="matrix(0,10.687687,-10.687687,0,464.5723,173.84262)"><path
         d="M 21,16 V 8 A 2,2 0 0 0 20,6.27 l -7,-4 a 2,2 0 0 0 -2,0 l -7,4 A 2,2 0 0 0 3,8 v 8 a 2,2 0 0 0 1,1.73 l 7,4 a 2,2 0 0 0 2,0 l 7,-4 A 2,2 0 0 0 21,16 Z"
         id="path1-5-2" /></g></g></svg>
