<?xml version="1.0" encoding="UTF-8" standalone="no"?>
<!-- Created with Inkscape (http://www.inkscape.org/) -->

<svg
   width="507.75436"
   height="401.20648"
   viewBox="0 0 507.75436 401.20648"
   version="1.1"
   id="svg1"
   xml:space="preserve"
   xmlns="http://www.w3.org/2000/svg"
   xmlns:svg="http://www.w3.org/2000/svg"><defs
     id="defs1" /><g
     id="layer1"
     transform="translate(-2.813143,-50.840946)"><g
       style="fill:none;stroke:currentColor;stroke-width:2;stroke-linecap:round;stroke-linejoin:round"
       id="g1"
       transform="matrix(10.687687,0,0,10.687687,80.857189,40.124916)"><path
         d="M 21,16 V 8 A 2,2 0 0 0 20,6.27 l -7,-4 a 2,2 0 0 0 -2,0 l -7,4 A 2,2 0 0 0 3,8 v 8 a 2,2 0 0 0 1,1.73 l 7,4 a 2,2 0 0 0 2,0 l 7,-4 A 2,2 0 0 0 21,16 Z"
         id="path1" /></g><g
       style="fill:none;stroke:currentColor;stroke-width:2;stroke-linecap:round;stroke-linejoin:round"
       id="g2"
       transform="matrix(10.687687,0,0,10.687687,-18.562231,204.17477)"><path
         d="M 21,16 V 8 A 2,2 0 0 0 20,6.27 l -7,-4 a 2,2 0 0 0 -2,0 l -7,4 A 2,2 0 0 0 3,8 v 8 a 2,2 0 0 0 1,1.73 l 7,4 a 2,2 0 0 0 2,0 l 7,-4 A 2,2 0 0 0 21,16 Z"
         id="path1-5" /></g><path
       d="M 499.87984,213.21209 V 127.7106 A 21.375374,21.375374 0 0 0 489.19216,109.2209 L 414.37834,66.470151 a 21.375374,21.375374 0 0 0 -21.37537,0 l -74.8138,42.750749 a 21.375374,21.375374 0 0 0 -10.68769,18.4897 v 85.50149 a 21.375374,21.375374 0 0 0 10.68769,18.48969 l 74.8138,42.75075 a 21.375374,21.375374 0 0 0 21.37537,0 l 74.81382,-42.75075 a 21.375374,21.375374 0 0 0 10.68768,-18.48969 z"
       id="path1-1"
       style="fill:none;stroke:currentColor;stroke-width:21.3753;stroke-linecap:round;stroke-linejoin:round" /><g
       style="fill:none;stroke:currentColor;stroke-width:2;stroke-linecap:round;stroke-linejoin:round"
       id="g3"
       transform="matrix(10.687687,0,0,10.687687,176.019,206.25896)"><path
         d="M 21,16 V 8 A 2,2 0 0 0 20,6.27 l -7,-4 a 2,2 0 0 0 -2,0 l -7,4 A 2,2 0 0 0 3,8 v 8 a 2,2 0 0 0 1,1.73 l 7,4 a 2,2 0 0 0 2,0 l 7,-4 A 2,2 0 0 0 21,16 Z"
         id="path1-5-2" /></g></g></svg>
